<svg height="44.021" viewBox="0 0 102.644 44.021" width="102.644" xmlns="http://www.w3.org/2000/svg"><g fill="#fdbb41"><path d="m3466.844-587.1c-1.638-.166-3.792-.387-5.948-.6a28.739 28.739 0 0 1 -8.017-2.334c-1.477-.589-2.91-1.233-4.353-1.869a40.5 40.5 0 0 0 -10.041-2.87 23.984 23.984 0 0 0 -13.447 1.684c-4.022 1.694-8.085 3.36-12.281 4.822a40.674 40.674 0 0 1 -16.05 1.918 31.426 31.426 0 0 1 -7.985-1.319c-1.021-.342-1.982-.77-2.981-1.142-1.138-.43-2.29-.838-3.427-1.265a7.866 7.866 0 0 1 -1.22-.537c-.662-.394-1.009-.908-.77-1.525a2.073 2.073 0 0 1 1.829-1.22 7.257 7.257 0 0 1 3.705.567c.992.378 1.93.827 2.886 1.254a23.949 23.949 0 0 0 8.469 1.8 42.326 42.326 0 0 0 9.61-.631 26.5 26.5 0 0 0 4.959-1.345c3.907-1.493 7.7-3.127 11.58-4.66a28.182 28.182 0 0 1 12.277-2.153 40.73 40.73 0 0 1 10.076 1.733 52.705 52.705 0 0 1 6.131 2.408c2.274 1.072 4.762 1.925 7.157 2.872a2.416 2.416 0 0 0 .436.151 30.866 30.866 0 0 0 13.588-.016 10.268 10.268 0 0 0 4.852-2.444c.418-.422.9-.809 1.353-1.211a2.613 2.613 0 0 1 2.414-.4c.931.2 1.265.7 1.247 1.308a2.411 2.411 0 0 1 -.325 1.327 7.458 7.458 0 0 1 -2.978 2.659 31.779 31.779 0 0 1 -12.745 3.034" transform="translate(-3380.249 614.418)"/><path d="m3466.844-597.051c-1.638-.166-3.792-.387-5.948-.6a28.692 28.692 0 0 1 -8.017-2.336c-1.477-.589-2.91-1.235-4.353-1.867a40.5 40.5 0 0 0 -10.041-2.87 24 24 0 0 0 -13.447 1.683c-4.022 1.7-8.085 3.362-12.281 4.823a40.7 40.7 0 0 1 -16.05 1.918 31.427 31.427 0 0 1 -7.985-1.321c-1.021-.343-1.982-.768-2.981-1.142-1.138-.429-2.29-.837-3.427-1.265a7.763 7.763 0 0 1 -1.22-.537c-.662-.392-1.009-.908-.77-1.523a2.071 2.071 0 0 1 1.829-1.222 7.256 7.256 0 0 1 3.705.567c.992.378 1.93.828 2.886 1.255a24.027 24.027 0 0 0 8.469 1.806 42.452 42.452 0 0 0 9.61-.631 26.65 26.65 0 0 0 4.959-1.345c3.907-1.493 7.7-3.129 11.58-4.66a28.19 28.19 0 0 1 12.277-2.153 40.656 40.656 0 0 1 10.076 1.734 52.866 52.866 0 0 1 6.131 2.4c2.274 1.075 4.762 1.928 7.157 2.874a2.29 2.29 0 0 0 .436.151 30.818 30.818 0 0 0 13.588-.017 10.235 10.235 0 0 0 4.852-2.443c.418-.422.9-.809 1.353-1.211a2.623 2.623 0 0 1 2.414-.4c.931.2 1.265.7 1.247 1.31a2.4 2.4 0 0 1 -.325 1.326 7.449 7.449 0 0 1 -2.978 2.659 31.734 31.734 0 0 1 -12.745 3.034" transform="translate(-3380.249 608.518)"/><path d="m3466.844-577.159c-1.638-.166-3.792-.387-5.948-.6a28.737 28.737 0 0 1 -8.017-2.336c-1.477-.589-2.91-1.235-4.353-1.867a40.57 40.57 0 0 0 -10.041-2.871 24.013 24.013 0 0 0 -13.447 1.682c-4.022 1.7-8.085 3.362-12.281 4.825a40.73 40.73 0 0 1 -16.05 1.918 31.5 31.5 0 0 1 -7.985-1.321c-1.021-.343-1.982-.77-2.981-1.144-1.138-.428-2.29-.836-3.427-1.263a7.878 7.878 0 0 1 -1.22-.537c-.662-.392-1.009-.91-.77-1.525a2.07 2.07 0 0 1 1.829-1.22 7.271 7.271 0 0 1 3.705.566c.992.379 1.93.828 2.886 1.255a23.986 23.986 0 0 0 8.469 1.805 42.34 42.34 0 0 0 9.61-.631 26.481 26.481 0 0 0 4.959-1.345c3.907-1.493 7.7-3.128 11.58-4.66a28.166 28.166 0 0 1 12.277-2.151 40.661 40.661 0 0 1 10.076 1.732 52.938 52.938 0 0 1 6.131 2.406c2.274 1.074 4.762 1.928 7.157 2.875a2.329 2.329 0 0 0 .436.15 30.82 30.82 0 0 0 13.588-.016 10.236 10.236 0 0 0 4.852-2.444c.418-.421.9-.809 1.353-1.209a2.618 2.618 0 0 1 2.414-.4c.931.2 1.265.7 1.247 1.311a2.4 2.4 0 0 1 -.325 1.326 7.431 7.431 0 0 1 -2.978 2.658 31.7 31.7 0 0 1 -12.745 3.035" transform="translate(-3380.249 620.32)"/></g></svg>